<svg xmlns="http://www.w3.org/2000/svg" viewBox="0 0 500 500"><defs><style>.cls-1{fill:#e6e6e6;}</style></defs><title>Gravity forms block 2</title><g id="Blocks"><path class="cls-1" d="M359.53,158.64,274.3,109.29a58.49,58.49,0,0,0-54.25,0l-85.59,49.35a59.55,59.55,0,0,0-27.08,46.8v98.92a58.15,58.15,0,0,0,27.08,46.8L155,363V248.41l.28.14v-.14l76.23,45c14.75,8.65,17.58,8.22,33.4-1.21,7.09-4.25,14.39-8.37,21.69-12.41l7.52-4.25,11.56-6.74,3.61-2.2L320.46,260l1-.57V231.11c-.28-10.85-1.63-17.94-15.32-25.81l-45.38-26.24c-12.76-7.23-16.17-6.45-31,2.41l-1.13.64q-18.54,11.08-37.44,21.56c-6.52,3.68-10.64,6.24-13.12,9.21-3.61,4.33-2.34,6.81,1.7,10.5a50.31,50.31,0,0,0,7.87,5.39c14.61,8.58,29.43,16.8,44.11,25.45s17.59,8.23,33.4-1.2c6.73-4,13.75-7.94,20.7-11.84-1.56-5.53-5.17-8.51-13.33-13.19l-31.13-18c-4-2.41-4.53-9.15-.07-11.92l4-2.55c4.4-2.76,4.26-2.84,7-1.2l35.39,20.63c9.78,5.67,14.46,9.36,16.52,15.74a50.24,50.24,0,0,1,1.56,14.18v6.88c-6.24,3.62-12.62,7.09-18.93,10.71-5.75,3.26-11.56,6.59-17.16,9.93-19.93,11.91-23.55,12.48-42.05,1.56-17.73-10.5-35.6-20.43-53.26-30.78l-.14-.07-2.05-1.2c-1.75-1-3.45-2-5.11-3.12-5.6-3.76-8.65-7-10.21-11.85-2.13-6.45-1.84-16.73,1.56-22.55,2.34-4,6.38-7.16,13.19-11.13l2.62-1.49.14-.07,2.27-1.27.71-.43.22-.07c15.67-8.72,30.84-17.44,46.23-26.66,19.92-12,24-13.33,40.42-4C283,170,301.74,181,320.46,191.75l.92.57c13.83,7.94,17.3,12,17.94,25.1v69.42l.07-.07v.28c.14,17.52-1.56,22.41-14,30.07q-11.43,7-23.19,13.54c-10.85,6.17-21.91,12.2-32.54,18.58-18.58,11.21-23,12.34-38.51,3.62l-3.54-2.06C209.13,340,190.48,329.53,172,318.75l-1.41-.85v54l49.49,28.51c7.38,4.25,17.23,6.66,27.09,6.66s19.71-2.48,27.09-6.66l85.58-49.28A59.42,59.42,0,0,0,387,304.36V205.44a57.15,57.15,0,0,0-27.44-46.8Z"/><path class="cls-1" d="M190.35,305.85l11.34,6.59c10.92,6.24,21.84,12.48,32.69,18.86,14.75,8.65,17.59,8.23,33.4-1.27,6.38-3.83,13-7.52,19.57-11.21-.07.14,12.55-7.09,12.55-7.09,2.91-1.63,5.75-3.33,8.51-5l1.35-.78,14.39-8.51V281.67l-1,.56q-7.35,4.39-14.82,8.58c-6.24,3.62-12.62,7.09-18.93,10.71-5.75,3.26-11.49,6.52-17.09,9.86-19.93,11.91-23.54,12.48-42,1.56-17.8-10.5-35.67-20.5-53.39-30.85l-2.06-1.2L173.4,280v15.68l12.69,7.51,4.26,2.63Z"/></g></svg>