<svg xmlns="http://www.w3.org/2000/svg" viewBox="0 0 500 500"><defs><style>.cls-1{fill:#757575;}.cls-2{fill:none;stroke:#3f62ff;stroke-miterlimit:10;stroke-width:0.25px;}</style></defs><title>Embed Block 2</title><g id="Layer_2" data-name="Layer 2"><path class="cls-1" d="M235,266.58l106.87.64L307.2,232.54l68.87-68.87-36.6-36.59L270.61,196l-35.56-35.59L235,266.58Zm147.57,4.27L359.7,242.72l.42,130.12L169.5,373l.19-230.79,106.62-.56-23.81-28.9H169.18c-13.14,0-23.81,12.94-23.81,28.9V372.78c0,16,10.67,28.9,23.81,28.9H359.63c13.14,0,23.81-12.95,23.81-28.9Z"/></g><g id="Guias"><line class="cls-2" x1="0.45" y1="8.26" x2="501.12" y2="509.91"/><line class="cls-2" x1="0.45" y1="509.91" x2="501.12" y2="8.26"/><polygon class="cls-2" points="419.01 427.64 84.82 425.63 82.56 90.53 419.01 90.53 419.01 427.64"/><line class="cls-2" x1="0.45" y1="259.08" x2="501.12" y2="259.08"/><line class="cls-2" x1="250.79" y1="6.25" x2="250.79" y2="511.92"/></g></svg>