<svg xmlns="http://www.w3.org/2000/svg" viewBox="0 0 500 500"><defs><style>.cls-1{fill:#e6e6e6;}.cls-2{fill:none;stroke:#3f62ff;stroke-miterlimit:10;stroke-width:0.25px;}</style></defs><title>Embed Block 1</title><g id="Layer_2" data-name="Layer 2"><path class="cls-1" d="M218,267.33l107.38.65-34.83-34.86,69.21-69.2L323,127.15l-69.21,69.2L218,160.6,218,267.33Zm148.29,4.29-23-28.27.41,130.76-191.55.12.19-231.92,107.14-.56-23.92-29H151.84c-13.21,0-23.92,13-23.92,29v232.3c0,16,10.71,29,23.92,29H343.22c13.21,0,23.93-13,23.93-29Z"/></g><g id="Guias"><line class="cls-2" x1="-0.05" y1="8.26" x2="500.62" y2="509.91"/><line class="cls-2" x1="-0.05" y1="509.91" x2="500.62" y2="8.26"/><polygon class="cls-2" points="418.51 427.64 84.32 425.63 82.06 90.53 418.51 90.53 418.51 427.64"/><line class="cls-2" x1="-0.05" y1="259.08" x2="500.62" y2="259.08"/><line class="cls-2" x1="250.29" y1="6.25" x2="250.29" y2="511.92"/></g></svg>