<svg xmlns="http://www.w3.org/2000/svg" viewBox="0 0 500 500"><defs><style>.cls-1{fill:#e6e6e6;}</style></defs><title>Contact Form 7block 2</title><g id="Layer_2" data-name="Layer 2"><path class="cls-1" d="M81,330.37V138.71h333.5V328.8c-3.91.08-7.9-.3-11.72.33-12.27,2-1.31-1.06-11.5-7.81-8.25-5.48-16.55-10.93-25.11-15.9-35.61-20.66-67.73-45.61-95.53-76.09-2.84-3.12-7.82-5.83-11.91-6-19.68-.81-19.7-.48-32.1,15.75a46.3,46.3,0,0,1-3.84,4.92c-27,26.78-54,53.72-88.57,71-16.53,8.27-12.74,20.16-33.07,17.23C94.45,331.3,87.69,331,81,330.37Z"/><path class="cls-1" d="M215.19,331.22c.64-2.58,1.6-5.14,1.83-7.76.2-2.36.4-6.15-.83-6.88a9.64,9.64,0,0,0-7.81-.26c-5.15,2.4-9.85,5.77-14.8,8.64-.81.47-2,.34-5.7.89,2.68-5.65,4.6-9.78,6.58-13.88,2.95-6.08,6.39-12,8.81-18.23,3.32-8.59,1.79-10.89-8.18-13.17,8.41-8.67,16.68-16.74,24.41-25.29,6.74-7.46,12.74-15.58,19.39-23.13,1.29-1.48,4.05-2.35,6.1-2.3s4.61,2.66,6.46,2.21c11.2-2.71,16.85,5.3,23.92,11.25,21.48,18.05,43.26,35.76,64.83,53.71,1.31,1.09,1.83,3.14,2.71,4.74-1.76.17-3.75.95-5.25.41-5.84-2.12-11.41-5.05-17.33-6.83-2.28-.69-5.24.88-7.89,1.42.62,2.36.81,4.95,1.95,7,2.24,4.05,5,7.81,7.58,11.69l-1.57,1.59C312.91,310.39,305.18,304,298,297c-5.17-5.06-9.2-11.32-14.49-16.24-2.49-2.32-7-4.1-10.12-3.56-2.05.35-4.71,5.32-4.68,8.2.1,9.31,1.4,18.61,2.07,27.92.24,3.31.81,6.94-.23,9.91s-3.45,6.84-6.2,7.93c-1.78.71-5.57-2.45-7.88-4.53-2.88-2.59-5.12-5.89-7.69-8.83-7.85-9-17.63-8-23.55,2.21-2.42,4.18-4.91,8.32-7.37,12.48Z"/></g></svg>