<?xml version="1.0" encoding="utf-8"?>
<!-- Generator: Adobe Illustrator 22.1.0, SVG Export Plug-In . SVG Version: 6.00 Build 0)  -->
<svg version="1.1" id="Layer_1" xmlns="http://www.w3.org/2000/svg" xmlns:xlink="http://www.w3.org/1999/xlink" x="0px" y="0px"
	 viewBox="0 0 328 326" style="enable-background:new 0 0 328 326;" xml:space="preserve">
<style type="text/css">
	.st0{clip-path:url(#SVGID_2_);fill:#FFFFFF;}
	.st1{fill:none;stroke:#FFFFFF;stroke-width:9.956;stroke-miterlimit:10;}
	.st2{clip-path:url(#SVGID_4_);fill:#FFFFFF;}
	.st3{fill:#FFFFFF;}
	.st4{clip-path:url(#SVGID_6_);fill:#FFFFFF;}
	.st5{clip-path:url(#SVGID_8_);fill:#FFFFFF;}
	.st6{fill:#241F21;}
	.st7{fill:#332F2E;}
</style>
<g>
	<defs>
		<rect id="SVGID_1_" y="0.9" width="327.3" height="325.1"/>
	</defs>
	<clipPath id="SVGID_2_">
		<use xlink:href="#SVGID_1_"  style="overflow:visible;"/>
	</clipPath>
	<path class="st0" d="M50.6,210.8v-15.4c3.5,0,5.3-1.3,5.3-4.1c0-2.5-1.4-3.7-4.1-3.7c-2.7,0-4.1,1.7-4.1,5.1v38.5H30.2v-36.7
		c0-3.8,0.4-6.9,1.1-9.3c0.8-2.4,2.1-4.7,3.9-6.8c2.1-2.3,4.7-4.2,7.8-5.5c3.1-1.4,6.3-2,9.6-2c6,0,11,2,15.1,6c4.1,4,6.1,9,6.1,15
		c0,5.8-1.8,10.5-5.5,14.1c-3.3,3.3-8.4,5-15.1,5L50.6,210.8z"/>
	<path class="st0" d="M103.8,215v16.7c-1.3,0.2-2.5,0.3-3.6,0.3c-6.5,0-11.9-2.1-16.2-6.4c-4.3-4.3-6.5-9.6-6.5-16
		c0-6.2,2.2-11.5,6.5-15.9c4.4-4.3,9.7-6.5,15.9-6.5c7,0,12.4,2,16.5,6.1c4,4.1,6,9.6,6,16.7v21.1h-16.1v-19.9
		c0-2.3-0.6-4.1-1.7-5.4c-1.1-1.4-2.6-2-4.5-2c-1.7,0-3.2,0.6-4.4,1.9c-1.2,1.2-1.9,2.7-1.9,4.4c0,1.8,0.6,3.2,1.7,4.4
		c1.1,1.2,2.5,1.7,4.3,1.7C101.3,216.1,102.6,215.8,103.8,215"/>
	<path class="st0" d="M158.3,172.3h16.1v35.9c0,6.6-1.7,12-5.2,16.1c-2,2.4-4.5,4.3-7.6,5.7c-3.1,1.4-6.2,2.1-9.4,2.1
		c-6.4,0-11.8-2.2-16.2-6.5c-4.4-4.3-6.6-9.6-6.6-15.9c0-6.1,2.2-11.3,6.6-15.8c4.4-4.4,9.5-6.6,15.5-6.6c0.9,0,2.4,0.1,4.3,0.3
		v17.8c-1.3-1-2.6-1.6-4-1.6c-1.7,0-3.1,0.6-4.3,1.8c-1.2,1.2-1.8,2.7-1.8,4.4c0,1.7,0.6,3.1,1.9,4.3c1.2,1.2,2.7,1.8,4.4,1.8
		c4.1,0,6.2-2.9,6.2-8.6V172.3z"/>
	<path class="st0" d="M242,231.2h-16.1v-23.2c0-1.8-0.2-3-0.6-3.7c-0.4-0.7-1.1-1-2-1c-1.8,0-2.7,1.6-2.7,4.8v23.2h-16.1v-23.2
		c0-1.8-0.2-3-0.6-3.7c-0.4-0.7-1.1-1-2.1-1c-1.8,0-2.7,1.6-2.7,4.8v23.2H183v-26.5c0-4.8,1.6-8.9,4.9-12.3
		c3.2-3.4,7.2-5.1,11.8-5.1c4.8,0,9.1,2,12.9,6c4.2-4,8.5-6,12.7-6c5.4,0,9.7,2,12.9,5.9c2.6,3,3.8,7.5,3.8,13.3V231.2z"/>
	<path class="st0" d="M275.4,215v16.7c-1.3,0.2-2.5,0.3-3.6,0.3c-6.5,0-11.9-2.1-16.2-6.4c-4.3-4.3-6.5-9.6-6.5-16
		c0-6.2,2.2-11.5,6.5-15.9c4.4-4.3,9.7-6.5,15.9-6.5c7,0,12.4,2,16.5,6.1c4,4.1,6,9.6,6,16.7v21.1h-16.1v-19.9
		c0-2.3-0.6-4.1-1.7-5.4c-1.1-1.4-2.6-2-4.5-2c-1.7,0-3.2,0.6-4.4,1.9c-1.2,1.2-1.9,2.7-1.9,4.4c0,1.8,0.6,3.2,1.7,4.4
		c1.1,1.2,2.5,1.7,4.3,1.7C272.9,216.1,274.2,215.8,275.4,215"/>
</g>
<line class="st1" x1="127.8" y1="245.7" x2="179.2" y2="245.7"/>
<g>
	<defs>
		<rect id="SVGID_3_" y="0.9" width="327.3" height="325.1"/>
	</defs>
	<clipPath id="SVGID_4_">
		<use xlink:href="#SVGID_3_"  style="overflow:visible;"/>
	</clipPath>
	<path class="st2" d="M58,264.9h2.3v13.7c0,1.6,0,2.6,0.1,3c0.1,0.9,0.4,1.6,0.8,2.2c0.4,0.6,1,1.1,1.9,1.5c0.9,0.4,1.7,0.6,2.6,0.6
		c0.8,0,1.5-0.2,2.2-0.5c0.7-0.3,1.3-0.8,1.7-1.3c0.5-0.6,0.8-1.2,1-2.1c0.2-0.6,0.2-1.8,0.2-3.5v-13.7H73v13.7c0,2-0.2,3.7-0.6,4.9
		c-0.4,1.2-1.2,2.3-2.4,3.3c-1.2,0.9-2.6,1.4-4.3,1.4c-1.8,0-3.4-0.4-4.7-1.3c-1.3-0.9-2.2-2-2.6-3.5c-0.3-0.9-0.4-2.5-0.4-4.8
		V264.9z"/>
	<path class="st2" d="M86.1,270.8h2.2v3c0.9-1.2,1.8-2,2.9-2.6c1-0.6,2.2-0.9,3.4-0.9c1.3,0,2.4,0.3,3.3,1c1,0.6,1.7,1.5,2.2,2.6
		c0.5,1.1,0.7,2.8,0.7,5v8.6h-2.2v-8c0-1.9-0.1-3.2-0.2-3.9c-0.3-1.1-0.7-1.9-1.4-2.5c-0.7-0.6-1.6-0.8-2.8-0.8
		c-1.3,0-2.5,0.4-3.5,1.3c-1,0.9-1.7,1.9-2,3.2c-0.2,0.8-0.3,2.4-0.3,4.6v6.2h-2.2V270.8z"/>
</g>
<rect x="113" y="264.3" class="st3" width="2.2" height="23.2"/>
<g>
	<defs>
		<rect id="SVGID_5_" y="0.9" width="327.3" height="325.1"/>
	</defs>
	<clipPath id="SVGID_6_">
		<use xlink:href="#SVGID_5_"  style="overflow:visible;"/>
	</clipPath>
	<path class="st4" d="M127.2,270.8h2.2v16.8h-2.2V270.8z M128.2,263.9c0.5,0,0.9,0.2,1.3,0.5c0.3,0.3,0.5,0.8,0.5,1.3
		c0,0.5-0.2,0.9-0.5,1.2c-0.3,0.3-0.8,0.5-1.3,0.5c-0.5,0-0.9-0.2-1.2-0.5c-0.3-0.3-0.5-0.8-0.5-1.2c0-0.5,0.2-0.9,0.5-1.3
		C127.3,264,127.8,263.9,128.2,263.9"/>
	<path class="st4" d="M141.7,270.8h2.2v2.9c0.8-1.1,1.5-1.9,2.3-2.3c1.1-0.7,2.2-1,3.4-1c0.8,0,1.6,0.2,2.3,0.5
		c0.7,0.3,1.3,0.7,1.8,1.3s0.9,1.3,1.2,2.3c0.7-1.3,1.6-2.3,2.7-3c1.1-0.7,2.2-1,3.5-1c1.2,0,2.2,0.3,3.1,0.9c0.9,0.6,1.5,1.4,2,2.5
		c0.4,1,0.6,2.6,0.6,4.7v9.2h-2.2v-9.2c0-1.8-0.1-3-0.4-3.7c-0.3-0.7-0.7-1.2-1.3-1.6c-0.6-0.4-1.4-0.6-2.2-0.6c-1,0-2,0.3-2.9,0.9
		c-0.9,0.6-1.5,1.4-1.9,2.5c-0.4,1-0.6,2.7-0.6,5.1v6.6h-2.2v-8.6c0-2-0.1-3.4-0.4-4.1c-0.3-0.7-0.7-1.3-1.3-1.7
		c-0.6-0.4-1.4-0.7-2.2-0.7c-1,0-1.9,0.3-2.8,0.9c-0.9,0.6-1.5,1.4-1.9,2.4c-0.4,1-0.6,2.6-0.6,4.7v7.1h-2.2V270.8z"/>
	<path class="st4" d="M178.9,270.8h2.2v16.8h-2.2V270.8z M180,263.9c0.5,0,0.9,0.2,1.3,0.5c0.3,0.3,0.5,0.8,0.5,1.3
		c0,0.5-0.2,0.9-0.5,1.2c-0.3,0.3-0.8,0.5-1.3,0.5c-0.5,0-0.9-0.2-1.2-0.5c-0.3-0.3-0.5-0.8-0.5-1.2c0-0.5,0.2-0.9,0.5-1.3
		C179.1,264,179.5,263.9,180,263.9"/>
</g>
<polygon class="st3" points="195.3,264.5 197.5,264.5 197.5,270.8 200.9,270.8 200.9,272.6 197.5,272.6 197.5,287.5 195.3,287.5 
	195.3,272.6 192.4,272.6 192.4,270.8 195.3,270.8 "/>
<g>
	<defs>
		<rect id="SVGID_7_" y="0.9" width="327.3" height="325.1"/>
	</defs>
	<clipPath id="SVGID_8_">
		<use xlink:href="#SVGID_7_"  style="overflow:visible;"/>
	</clipPath>
	<path class="st5" d="M226.1,277.4c-0.3-1.2-0.7-2.1-1.3-2.8c-0.6-0.7-1.3-1.2-2.2-1.7c-0.9-0.4-1.9-0.6-2.9-0.6
		c-1.6,0-3.1,0.5-4.2,1.6c-0.9,0.8-1.5,1.9-2,3.5H226.1z M226.1,282l1.8,1c-0.6,1.2-1.3,2.1-2.1,2.8c-0.8,0.7-1.7,1.3-2.6,1.6
		c-1,0.4-2.1,0.6-3.3,0.6c-2.7,0-4.9-0.9-6.4-2.7c-1.5-1.8-2.3-3.8-2.3-6.1c0-2.1,0.7-4,2-5.7c1.7-2.1,3.9-3.2,6.6-3.2
		c2.9,0,5.1,1.1,6.9,3.3c1.2,1.5,1.8,3.4,1.9,5.7h-15.1c0,1.9,0.7,3.5,1.9,4.8c1.2,1.2,2.7,1.9,4.5,1.9c0.9,0,1.7-0.1,2.5-0.4
		c0.8-0.3,1.5-0.7,2.1-1.2C224.9,283.9,225.5,283.1,226.1,282"/>
	<path class="st5" d="M248.5,272.4c-1.2,0-2.3,0.3-3.3,0.9c-1,0.6-1.8,1.4-2.4,2.5c-0.6,1.1-0.9,2.2-0.9,3.4c0,1.2,0.3,2.3,0.9,3.4
		c0.6,1.1,1.4,1.9,2.4,2.5c1,0.6,2.1,0.9,3.3,0.9c1.2,0,2.3-0.3,3.4-0.9c1.1-0.6,1.9-1.4,2.4-2.4c0.6-1,0.9-2.2,0.9-3.4
		c0-1.9-0.6-3.6-1.9-4.9C252,273.1,250.4,272.4,248.5,272.4 M257.2,264.3v23.2H255v-2.9c-0.9,1.1-1.9,1.9-3,2.5
		c-1.1,0.6-2.4,0.8-3.7,0.8c-2.4,0-4.4-0.9-6.1-2.6c-1.7-1.7-2.5-3.8-2.5-6.3c0-2.4,0.8-4.5,2.5-6.2c1.7-1.7,3.7-2.6,6.1-2.6
		c1.4,0,2.6,0.3,3.7,0.9c1.1,0.6,2.1,1.5,2.9,2.6v-9.6H257.2z"/>
</g>
<polygon class="st6" points="166.1,100.9 232.6,32.3 102.8,32.3 "/>
<polygon class="st3" points="201.1,64.8 166.1,32.3 166.1,100.9 "/>
<polygon class="st3" points="166.1,100.3 166.1,147.5 201.1,100.9 "/>
<polygon class="st3" points="201.1,123.8 232.6,101.6 201.1,100.9 "/>
<polygon class="st3" points="201.1,100.3 232.6,32.3 201.1,65.1 "/>
<polygon class="st3" points="166,147.5 102.8,100.3 102.8,32.3 166.3,100.3 "/>
<polygon class="st7" points="166.3,100.3 166,147.5 133.9,100.3 "/>
<polygon class="st7" points="134.4,124.6 102.8,100.3 133.9,100.3 "/>
<polygon class="st7" points="133.9,100.3 102.8,32.3 133.9,66.1 "/>
<polygon class="st3" points="134,66.2 166.1,32.3 102.8,32.3 "/>
</svg>
