<svg xmlns="http://www.w3.org/2000/svg" viewBox="0 0 500 500"><defs><style>.cls-1{fill:#e6e6e6;}</style></defs><title>Text Block 2</title><g id="Layer_2" data-name="Layer 2"><g id="Fonts"><path class="cls-1" d="M195.6,383.79l29.45-5.41a11.29,11.29,0,0,0,6.71-4.11,11.81,11.81,0,0,0,2.7-7.71V132.2h-63.9c-2.67,0-4.6.67-5.81,2a14.12,14.12,0,0,0-2.8,5l-14.42,44.27H136.91V117.17H368.67v66.31H358.05l-14.42-44.27a15.14,15.14,0,0,0-2.7-5q-1.71-2-5.51-2h-64.9V366.56a11.43,11.43,0,0,0,2.8,7.81,11.94,11.94,0,0,0,6.81,4l29.45,5.41v9.41h-114Z"/></g></g></svg>