<svg xmlns="http://www.w3.org/2000/svg" viewBox="0 0 500 500"><defs><style>.cls-1{fill:#757575;stroke-width:3.04px;}.cls-1,.cls-2{stroke:#757575;}.cls-1,.cls-3{stroke-miterlimit:10;}.cls-2,.cls-3{fill:none;}.cls-2{stroke-linecap:square;stroke-width:18px;}.cls-3{stroke:#3f62ff;stroke-width:0.25px;}</style></defs><title>Audio Block 2</title><g id="Layer_2" data-name="Layer 2"><path class="cls-1" d="M250.86,120l-68.27,59H118v76h63.64l69.24,59.89Z"/><path class="cls-2" d="M285.13,175a77.59,77.59,0,0,1,0,85.16m28.26-113.42a119.42,119.42,0,0,1,0,141.68m25.86-167.54a154.4,154.4,0,0,1,0,193.41"/></g><g id="Guias"><line class="cls-3" x1="0.45" y1="-35.89" x2="501.12" y2="465.76"/><line class="cls-3" x1="0.45" y1="465.76" x2="501.12" y2="-35.89"/><polygon class="cls-3" points="419.01 383.49 84.82 381.48 82.56 46.38 419.01 46.38 419.01 383.49"/><line class="cls-3" x1="0.45" y1="214.93" x2="501.12" y2="214.93"/><line class="cls-3" x1="250.79" y1="-37.9" x2="250.79" y2="467.77"/></g></svg>