<svg xmlns="http://www.w3.org/2000/svg" viewBox="0 0 500 500"><defs><style>.cls-1{fill:none;stroke:#757575;stroke-miterlimit:10;stroke-width:14.4px;}.cls-2{fill:#757575;}.cls-3{fill:#fff;}</style></defs><title>Custom code Block</title><g id="Layer_2" data-name="Layer 2"><polygon class="cls-1" points="370.54 404.96 126.72 404.96 126.72 85.61 313.49 85.61 370.54 144.31 370.54 404.96"/><polygon class="cls-2" points="311.9 84.64 312.21 146.1 371.06 145.95 311.9 84.64"/><path class="cls-2" d="M361.82,404.35H135.37a8.27,8.27,0,0,1-8.27-8.27v-87.8h243v87.8A8.27,8.27,0,0,1,361.82,404.35Z"/><path class="cls-3" d="M222.57,381.6a20.92,20.92,0,0,1-7.19,4.63,23.86,23.86,0,0,1-8.65,1.55,23.3,23.3,0,0,1-9.38-1.86,21,21,0,0,1-7.5-5.48,26,26,0,0,1-5-9.12,45.11,45.11,0,0,1,0-25.3,25.88,25.88,0,0,1,5-9.07,21.39,21.39,0,0,1,7.54-5.53,22.9,22.9,0,0,1,9.34-1.89,23.85,23.85,0,0,1,8.65,1.54,21.22,21.22,0,0,1,7.19,4.63l-6.42,5.72a11.46,11.46,0,0,0-4.29-3.24,12.35,12.35,0,0,0-4.9-1,14,14,0,0,0-5.45,1.08,11.56,11.56,0,0,0-4.63,3.67,19,19,0,0,0-3.21,6.68,41.64,41.64,0,0,0,0,19.93,19.42,19.42,0,0,0,3.1,6.69,12.35,12.35,0,0,0,4.48,3.79,12.07,12.07,0,0,0,5.29,1.19,13.52,13.52,0,0,0,5.22-1,12.23,12.23,0,0,0,4.44-3.25Z"/><path class="cls-3" d="M268.08,371.78a14.73,14.73,0,0,1-1.28,6,15.61,15.61,0,0,1-3.6,5.1,17.09,17.09,0,0,1-5.71,3.52,21.49,21.49,0,0,1-7.73,1.31c-1.24,0-2.51-.07-3.83-.19a33.19,33.19,0,0,1-4-.66,20.27,20.27,0,0,1-3.83-1.28,12.37,12.37,0,0,1-3.13-2l1.62-6.65a15.37,15.37,0,0,0,2.74,1.2c1.11.39,2.25.75,3.44,1.08a35,35,0,0,0,3.55.82,19.11,19.11,0,0,0,3.33.31c3.14,0,5.54-.74,7.22-2.21s2.51-3.64,2.51-6.52a6.23,6.23,0,0,0-1.78-4.49,19.51,19.51,0,0,0-4.44-3.36c-1.77-1-3.7-2-5.76-3a35.49,35.49,0,0,1-5.79-3.55,18.84,18.84,0,0,1-4.48-4.83,12.61,12.61,0,0,1-1.78-6.95,15.64,15.64,0,0,1,1.39-6.72,15,15,0,0,1,3.75-5,16.34,16.34,0,0,1,5.49-3.13,19.82,19.82,0,0,1,6.6-1.08,41.07,41.07,0,0,1,7.19.65,15.87,15.87,0,0,1,5.87,2.13c-.31.66-.67,1.4-1.08,2.2l-1.16,2.24q-.54,1-.93,1.74a7.63,7.63,0,0,1-.46.77,8.91,8.91,0,0,1-1.05-.61,7.66,7.66,0,0,0-1.66-.78,11.93,11.93,0,0,0-2.86-.54,26.58,26.58,0,0,0-4.56.08,8,8,0,0,0-2.94.89,10.15,10.15,0,0,0-2.47,1.81,8.19,8.19,0,0,0-1.7,2.44,6.23,6.23,0,0,0-.62,2.58,7,7,0,0,0,1.78,5,17.23,17.23,0,0,0,4.4,3.32c1.75,1,3.66,1.88,5.72,2.78a31.33,31.33,0,0,1,5.76,3.28,16.7,16.7,0,0,1,4.44,4.83A14.09,14.09,0,0,1,268.08,371.78Z"/><path class="cls-3" d="M310,371.78a14.57,14.57,0,0,1-1.28,6,15.44,15.44,0,0,1-3.59,5.1,17.24,17.24,0,0,1-5.72,3.52,21.45,21.45,0,0,1-7.73,1.31c-1.23,0-2.5-.07-3.82-.19a33,33,0,0,1-4-.66,20.27,20.27,0,0,1-3.83-1.28,12.73,12.73,0,0,1-3.13-2L278.5,377a15.37,15.37,0,0,0,2.74,1.2c1.1.39,2.25.75,3.43,1.08a35.14,35.14,0,0,0,3.56.82,19,19,0,0,0,3.32.31q4.71,0,7.22-2.21t2.51-6.52a6.27,6.27,0,0,0-1.77-4.49,19.57,19.57,0,0,0-4.45-3.36q-2.65-1.5-5.75-3a35.58,35.58,0,0,1-5.8-3.55,18.84,18.84,0,0,1-4.48-4.83,12.7,12.7,0,0,1-1.77-6.95,15.5,15.5,0,0,1,1.39-6.72,14.85,14.85,0,0,1,3.74-5,16.54,16.54,0,0,1,5.49-3.13,19.88,19.88,0,0,1,6.61-1.08,41,41,0,0,1,7.18.65,15.87,15.87,0,0,1,5.87,2.13c-.31.66-.66,1.4-1.08,2.2l-1.16,2.24c-.35.69-.66,1.27-.92,1.74a6.75,6.75,0,0,1-.47.77,8.86,8.86,0,0,1-1-.61,7.9,7.9,0,0,0-1.66-.78,12.13,12.13,0,0,0-2.86-.54,26.56,26.56,0,0,0-4.56.08,7.84,7.84,0,0,0-2.94.89,10.4,10.4,0,0,0-2.48,1.81,8.38,8.38,0,0,0-1.7,2.44,6.21,6.21,0,0,0-.61,2.58,7,7,0,0,0,1.77,5,17.59,17.59,0,0,0,4.4,3.32c1.75,1,3.66,1.88,5.72,2.78a31.33,31.33,0,0,1,5.76,3.28,16.56,16.56,0,0,1,4.44,4.83A14,14,0,0,1,310,371.78Z"/><path class="cls-2" d="M203.39,195.26V172.65A5.66,5.66,0,0,1,209,167a5.65,5.65,0,0,0,0-11.3,17,17,0,0,0-17,17v22.61a11.31,11.31,0,0,1-11.3,11.3,5.65,5.65,0,0,0,0,11.3,11.31,11.31,0,0,1,11.3,11.3v22.61a17,17,0,0,0,17,17,5.65,5.65,0,1,0,0-11.3,5.66,5.66,0,0,1-5.65-5.65V229.16a22.49,22.49,0,0,0-7.81-16.95A22.49,22.49,0,0,0,203.39,195.26Z"/><path class="cls-2" d="M316.41,206.56a11.31,11.31,0,0,1-11.3-11.3V172.65a17,17,0,0,0-17-17,5.65,5.65,0,1,0,0,11.3,5.66,5.66,0,0,1,5.65,5.65v22.61a22.49,22.49,0,0,0,7.81,17,22.49,22.49,0,0,0-7.81,16.95v22.61a5.66,5.66,0,0,1-5.65,5.65,5.65,5.65,0,1,0,0,11.3,17,17,0,0,0,17-17V229.16a11.31,11.31,0,0,1,11.3-11.3,5.65,5.65,0,0,0,0-11.3Z"/></g></svg>