<svg xmlns="http://www.w3.org/2000/svg" viewBox="0 0 500 500"><defs><style>.cls-1,.cls-3{fill:#fff;}.cls-1{stroke:#e6e6e6;stroke-width:12px;}.cls-1,.cls-4{stroke-miterlimit:10;}.cls-2{fill:#e6e6e6;}.cls-4{fill:none;stroke:#3f62ff;stroke-width:0.25px;}</style></defs><title>Custom code Block 1</title><g id="Layer_2" data-name="Layer 2"><polygon class="cls-1" points="353.77 377.25 150.59 377.25 150.59 111.13 306.23 111.13 353.77 160.04 353.77 377.25"/><polygon class="cls-2" points="304.9 110.32 305.16 161.54 354.2 161.41 304.9 110.32"/><path class="cls-2" d="M346.51,376.74H157.79a6.88,6.88,0,0,1-6.89-6.89V296.69H353.39v73.16A6.88,6.88,0,0,1,346.51,376.74Z"/><path class="cls-3" d="M230.46,357.79a17.65,17.65,0,0,1-6,3.86,19.85,19.85,0,0,1-7.21,1.28,19.49,19.49,0,0,1-7.82-1.54,17.51,17.51,0,0,1-6.24-4.57,21.6,21.6,0,0,1-4.19-7.6,33.59,33.59,0,0,1-1.51-10.56A33.25,33.25,0,0,1,199,328.14a21.5,21.5,0,0,1,4.19-7.56,17.91,17.91,0,0,1,6.27-4.61,19.27,19.27,0,0,1,7.79-1.58,19.85,19.85,0,0,1,7.21,1.29,17.65,17.65,0,0,1,6,3.86l-5.35,4.77a9.76,9.76,0,0,0-3.57-2.71,10.5,10.5,0,0,0-4.09-.84,11.68,11.68,0,0,0-4.54.9,9.74,9.74,0,0,0-3.86,3.06,15.71,15.71,0,0,0-2.67,5.57,32.77,32.77,0,0,0-1,8.37,33.2,33.2,0,0,0,1,8.24,16.27,16.27,0,0,0,2.57,5.57,10.35,10.35,0,0,0,3.74,3.16,10.16,10.16,0,0,0,4.41,1,11.46,11.46,0,0,0,4.35-.83,10.24,10.24,0,0,0,3.7-2.71Z"/><path class="cls-3" d="M268.38,349.61a12.26,12.26,0,0,1-1.06,5,13,13,0,0,1-3,4.25,14.35,14.35,0,0,1-4.76,2.93,17.82,17.82,0,0,1-6.44,1.09c-1,0-2.09-.06-3.19-.16a24.45,24.45,0,0,1-3.32-.55,16.72,16.72,0,0,1-3.18-1.06,10,10,0,0,1-2.61-1.65l1.35-5.53a14.92,14.92,0,0,0,2.28,1c.93.32,1.88.62,2.87.89a28.7,28.7,0,0,0,3,.68,15.45,15.45,0,0,0,2.77.26,8.88,8.88,0,0,0,6-1.83,6.88,6.88,0,0,0,2.09-5.44,5.2,5.2,0,0,0-1.48-3.74,16.1,16.1,0,0,0-3.7-2.8c-1.48-.84-3.08-1.67-4.8-2.51a29.6,29.6,0,0,1-4.83-3,15.64,15.64,0,0,1-3.73-4,10.57,10.57,0,0,1-1.48-5.8,12.83,12.83,0,0,1,1.16-5.6,12.61,12.61,0,0,1,3.12-4.15,13.83,13.83,0,0,1,4.57-2.61,16.8,16.8,0,0,1,5.51-.9,33.94,33.94,0,0,1,6,.55,13,13,0,0,1,4.89,1.77c-.25.56-.55,1.17-.89,1.84s-.67,1.28-1,1.86-.56,1.07-.77,1.45-.35.6-.39.65a8.24,8.24,0,0,1-.87-.52,6.47,6.47,0,0,0-1.38-.64,9.88,9.88,0,0,0-2.39-.45,22.56,22.56,0,0,0-3.8.06,6.69,6.69,0,0,0-2.45.74,8.62,8.62,0,0,0-2.06,1.51,7.23,7.23,0,0,0-1.42,2,5.3,5.3,0,0,0-.51,2.16,5.81,5.81,0,0,0,1.48,4.15,14.21,14.21,0,0,0,3.67,2.77q2.17,1.2,4.76,2.32a26.26,26.26,0,0,1,4.8,2.73,13.74,13.74,0,0,1,3.7,4A11.65,11.65,0,0,1,268.38,349.61Z"/><path class="cls-3" d="M303.28,349.61a12.27,12.27,0,0,1-1.07,5,13,13,0,0,1-3,4.25,14.4,14.4,0,0,1-4.77,2.93,17.75,17.75,0,0,1-6.44,1.09c-1,0-2.09-.06-3.18-.16a24.45,24.45,0,0,1-3.32-.55,16.82,16.82,0,0,1-3.19-1.06,10.19,10.19,0,0,1-2.61-1.65l1.35-5.53a15.54,15.54,0,0,0,2.29,1c.92.32,1.87.62,2.86.89a28.7,28.7,0,0,0,3,.68,15.45,15.45,0,0,0,2.77.26,8.86,8.86,0,0,0,6-1.83,6.85,6.85,0,0,0,2.09-5.44,5.2,5.2,0,0,0-1.48-3.74,16.1,16.1,0,0,0-3.7-2.8c-1.48-.84-3.08-1.67-4.8-2.51a29.51,29.51,0,0,1-4.82-3,15.51,15.51,0,0,1-3.74-4,10.57,10.57,0,0,1-1.48-5.8,13,13,0,0,1,1.16-5.6,12.61,12.61,0,0,1,3.12-4.15,13.88,13.88,0,0,1,4.58-2.61,16.69,16.69,0,0,1,5.5-.9,34.14,34.14,0,0,1,6,.55,13.09,13.09,0,0,1,4.89,1.77c-.26.56-.56,1.17-.9,1.84l-1,1.86c-.29.58-.55,1.07-.77,1.45a6.53,6.53,0,0,1-.38.65,7.34,7.34,0,0,1-.87-.52,6.83,6.83,0,0,0-1.39-.64,9.69,9.69,0,0,0-2.38-.45,22.56,22.56,0,0,0-3.8.06,6.69,6.69,0,0,0-2.45.74,8.42,8.42,0,0,0-2.06,1.51,6.84,6.84,0,0,0-1.42,2,5.14,5.14,0,0,0-.51,2.16,5.85,5.85,0,0,0,1.47,4.15,14.38,14.38,0,0,0,3.67,2.77q2.19,1.2,4.77,2.32a26.6,26.6,0,0,1,4.8,2.73,13.87,13.87,0,0,1,3.7,4A11.65,11.65,0,0,1,303.28,349.61Z"/><path class="cls-2" d="M214.47,202.5V183.67a4.71,4.71,0,0,1,4.71-4.71,4.71,4.71,0,0,0,0-9.42,14.14,14.14,0,0,0-14.12,14.13V202.5a9.43,9.43,0,0,1-9.42,9.42,4.71,4.71,0,1,0,0,9.42,9.43,9.43,0,0,1,9.42,9.42v18.83a14.14,14.14,0,0,0,14.12,14.13,4.71,4.71,0,1,0,0-9.42,4.71,4.71,0,0,1-4.71-4.71V230.76a18.74,18.74,0,0,0-6.5-14.13A18.74,18.74,0,0,0,214.47,202.5Z"/><path class="cls-2" d="M308.66,211.92a9.42,9.42,0,0,1-9.42-9.42V183.67a14.15,14.15,0,0,0-14.13-14.13,4.71,4.71,0,0,0,0,9.42,4.71,4.71,0,0,1,4.71,4.71V202.5a18.72,18.72,0,0,0,6.51,14.13,18.72,18.72,0,0,0-6.51,14.13v18.83a4.71,4.71,0,0,1-4.71,4.71,4.71,4.71,0,0,0,0,9.42,14.15,14.15,0,0,0,14.13-14.13V230.76a9.42,9.42,0,0,1,9.42-9.42,4.71,4.71,0,0,0,0-9.42Z"/></g><g id="Guias"><line class="cls-4" x1="-0.05" y1="-4.73" x2="500.62" y2="496.92"/><line class="cls-4" x1="-0.05" y1="496.92" x2="500.62" y2="-4.73"/><polygon class="cls-4" points="418.51 414.65 84.32 412.64 82.06 77.54 418.51 77.54 418.51 414.65"/><line class="cls-4" x1="-0.05" y1="246.09" x2="500.62" y2="246.09"/><line class="cls-4" x1="250.29" y1="-6.74" x2="250.29" y2="498.93"/></g></svg>