<svg xmlns="http://www.w3.org/2000/svg" viewBox="0 0 500 500"><defs><style>.cls-1,.cls-3{fill:#fff;}.cls-1{stroke:#e6e6e6;stroke-miterlimit:10;stroke-width:14.4px;}.cls-2{fill:#e6e6e6;}</style></defs><title>Custom code Block 2</title><g id="Layer_2" data-name="Layer 2"><polygon class="cls-1" points="370.05 404.96 126.23 404.96 126.23 85.61 312.99 85.61 370.05 144.31 370.05 404.96"/><polygon class="cls-2" points="311.4 84.64 311.71 146.1 370.56 145.95 311.4 84.64"/><path class="cls-2" d="M361.33,404.35H134.87a8.27,8.27,0,0,1-8.27-8.27v-87.8h243v87.8A8.28,8.28,0,0,1,361.33,404.35Z"/><path class="cls-3" d="M222.07,381.6a20.88,20.88,0,0,1-7.18,4.63,23.86,23.86,0,0,1-8.65,1.55,23.32,23.32,0,0,1-9.39-1.86,20.89,20.89,0,0,1-7.49-5.48,25.89,25.89,0,0,1-5-9.12,45.11,45.11,0,0,1,0-25.3,25.73,25.73,0,0,1,5-9.07,21.27,21.27,0,0,1,7.53-5.53,23,23,0,0,1,9.35-1.89,23.85,23.85,0,0,1,8.65,1.54,21.18,21.18,0,0,1,7.18,4.63l-6.41,5.72a11.62,11.62,0,0,0-4.29-3.24,12.44,12.44,0,0,0-4.91-1,14.06,14.06,0,0,0-5.45,1.08,11.63,11.63,0,0,0-4.63,3.67,19,19,0,0,0-3.2,6.68,41.31,41.31,0,0,0,0,19.93,19.23,19.23,0,0,0,3.09,6.69,12.52,12.52,0,0,0,4.48,3.79A12.11,12.11,0,0,0,206,380.2a13.52,13.52,0,0,0,5.22-1,12.23,12.23,0,0,0,4.44-3.25Z"/><path class="cls-3" d="M267.58,371.78a14.73,14.73,0,0,1-1.28,6,15.44,15.44,0,0,1-3.59,5.1,17.24,17.24,0,0,1-5.72,3.52,21.45,21.45,0,0,1-7.73,1.31c-1.23,0-2.51-.07-3.82-.19a33,33,0,0,1-4-.66,20.27,20.27,0,0,1-3.83-1.28,12.37,12.37,0,0,1-3.13-2l1.62-6.65a15.83,15.83,0,0,0,2.75,1.2c1.1.39,2.24.75,3.43,1.08a35.14,35.14,0,0,0,3.56.82,18.91,18.91,0,0,0,3.32.31q4.71,0,7.22-2.21t2.51-6.52a6.27,6.27,0,0,0-1.77-4.49,19.57,19.57,0,0,0-4.45-3.36q-2.66-1.5-5.75-3a35.58,35.58,0,0,1-5.8-3.55,18.84,18.84,0,0,1-4.48-4.83,12.61,12.61,0,0,1-1.77-6.95,15.5,15.5,0,0,1,1.39-6.72,14.85,14.85,0,0,1,3.74-5,16.44,16.44,0,0,1,5.49-3.13,19.88,19.88,0,0,1,6.61-1.08,41,41,0,0,1,7.18.65,15.87,15.87,0,0,1,5.87,2.13c-.31.66-.67,1.4-1.08,2.2l-1.16,2.24c-.35.69-.66,1.27-.92,1.74a6.75,6.75,0,0,1-.47.77,8.86,8.86,0,0,1-1-.61,7.9,7.9,0,0,0-1.66-.78,12.13,12.13,0,0,0-2.86-.54,26.56,26.56,0,0,0-4.56.08,7.84,7.84,0,0,0-2.94.89,10.4,10.4,0,0,0-2.48,1.81,8.19,8.19,0,0,0-1.7,2.44,6.21,6.21,0,0,0-.61,2.58,7,7,0,0,0,1.77,5,17.59,17.59,0,0,0,4.4,3.32c1.75,1,3.66,1.88,5.72,2.78a31.33,31.33,0,0,1,5.76,3.28,16.7,16.7,0,0,1,4.44,4.83A14,14,0,0,1,267.58,371.78Z"/><path class="cls-3" d="M309.45,371.78a14.72,14.72,0,0,1-1.27,6,15.61,15.61,0,0,1-3.6,5.1,17.24,17.24,0,0,1-5.72,3.52,21.4,21.4,0,0,1-7.72,1.31c-1.24,0-2.51-.07-3.83-.19a33,33,0,0,1-4-.66,20.17,20.17,0,0,1-3.82-1.28,12.37,12.37,0,0,1-3.13-2L278,377a15.37,15.37,0,0,0,2.74,1.2c1.11.39,2.25.75,3.44,1.08a34.35,34.35,0,0,0,3.55.82,19.09,19.09,0,0,0,3.32.31q4.71,0,7.22-2.21c1.68-1.47,2.51-3.64,2.51-6.52a6.23,6.23,0,0,0-1.77-4.49,19.73,19.73,0,0,0-4.44-3.36q-2.67-1.5-5.76-3a35.49,35.49,0,0,1-5.79-3.55,18.5,18.5,0,0,1-4.48-4.83,12.61,12.61,0,0,1-1.78-6.95,15.5,15.5,0,0,1,1.39-6.72,15,15,0,0,1,3.75-5,16.34,16.34,0,0,1,5.49-3.13,19.78,19.78,0,0,1,6.6-1.08,41,41,0,0,1,7.18.65,15.81,15.81,0,0,1,5.87,2.13c-.31.66-.66,1.4-1.07,2.2s-.81,1.54-1.16,2.24-.67,1.27-.93,1.74a7.63,7.63,0,0,1-.46.77,8.91,8.91,0,0,1-1.05-.61,7.9,7.9,0,0,0-1.66-.78,11.93,11.93,0,0,0-2.86-.54,26.56,26.56,0,0,0-4.56.08,7.89,7.89,0,0,0-2.94.89,10.15,10.15,0,0,0-2.47,1.81,8,8,0,0,0-1.7,2.44,6.08,6.08,0,0,0-.62,2.58,7,7,0,0,0,1.77,5,17.47,17.47,0,0,0,4.41,3.32c1.74,1,3.65,1.88,5.72,2.78a31.24,31.24,0,0,1,5.75,3.28,16.73,16.73,0,0,1,4.45,4.83A14.09,14.09,0,0,1,309.45,371.78Z"/><path class="cls-2" d="M202.89,195.26V172.65a5.66,5.66,0,0,1,5.65-5.65,5.65,5.65,0,0,0,0-11.3,17,17,0,0,0-16.95,17v22.61a11.31,11.31,0,0,1-11.3,11.3,5.65,5.65,0,1,0,0,11.3,11.31,11.31,0,0,1,11.3,11.3v22.61a17,17,0,0,0,16.95,17,5.65,5.65,0,1,0,0-11.3,5.66,5.66,0,0,1-5.65-5.65V229.16a22.45,22.45,0,0,0-7.81-16.95A22.45,22.45,0,0,0,202.89,195.26Z"/><path class="cls-2" d="M315.91,206.56a11.31,11.31,0,0,1-11.3-11.3V172.65a17,17,0,0,0-16.95-17,5.65,5.65,0,1,0,0,11.3,5.66,5.66,0,0,1,5.65,5.65v22.61a22.45,22.45,0,0,0,7.81,17,22.45,22.45,0,0,0-7.81,16.95v22.61a5.66,5.66,0,0,1-5.65,5.65,5.65,5.65,0,1,0,0,11.3,17,17,0,0,0,16.95-17V229.16a11.31,11.31,0,0,1,11.3-11.3,5.65,5.65,0,0,0,0-11.3Z"/></g></svg>