<svg xmlns="http://www.w3.org/2000/svg" viewBox="0 0 500 500"><defs><style>.cls-1{fill:#757575;}</style></defs><title>Video Block</title><g id="Layer_2" data-name="Layer 2"><path class="cls-1" d="M117.53,112.33V376.67H383.94V112.33ZM157,366h-27.5V344.74H157Zm0-53.64h-27.5V291.1H157Zm0-53.63h-27.5V237.47H157Zm0-53.64h-27.5V183.83H157Zm0-53.63h-27.5V130.19H157ZM331.57,359.84H170.32V254.22H331.57Zm0-117.9H170.32V136.32H331.57ZM372,366H345.17V344.74H372Zm0-53.64H345.17V291.1H372Zm0-53.63H345.17V237.47H372Zm0-53.64H345.17V183.83H372Zm0-53.63H345.17V130.19H372Z"/></g></svg>