<svg xmlns="http://www.w3.org/2000/svg" viewBox="0 0 500 500"><defs><style>.cls-1{fill:#757575;}.cls-2{fill:none;stroke:#3f62ff;stroke-miterlimit:10;stroke-width:0.25px;}</style></defs><title>Video Block 2</title><g id="Layer_2" data-name="Layer 2"><path class="cls-1" d="M141.23,114.73V335h222V114.73Zm32.86,211.36H151.18v-17.7h22.91Zm0-44.7H151.18V263.7h22.91Zm0-44.7H151.18V219h22.91Zm0-44.69H151.18V174.31h22.91Zm0-44.7H151.18V129.61h22.91ZM319.6,321H185.22V233H319.6Zm0-98.25H185.22v-88H319.6Zm33.69,103.36H330.93v-17.7h22.36Zm0-44.7H330.93V263.7h22.36Zm0-44.7H330.93V219h22.36Zm0-44.69H330.93V174.31h22.36Zm0-44.7H330.93V129.61h22.36Z"/></g><g id="Guias"><line class="cls-2" x1="-0.55" y1="-35.84" x2="500.12" y2="465.82"/><line class="cls-2" x1="-0.55" y1="465.82" x2="500.12" y2="-35.84"/><polygon class="cls-2" points="418.01 383.54 83.82 381.54 81.56 46.43 418.01 46.43 418.01 383.54"/><line class="cls-2" x1="-0.55" y1="214.99" x2="500.12" y2="214.99"/><line class="cls-2" x1="249.79" y1="-37.84" x2="249.79" y2="467.82"/></g></svg>