<svg xmlns="http://www.w3.org/2000/svg" viewBox="0 0 500 500"><defs><style>.cls-1{fill:#e6e6e6;}</style></defs><title>Video Block 2</title><g id="Blocks"><path class="cls-1" d="M117.91,112.33V376.67H384.33V112.33ZM157.34,366H129.85V344.74h27.49Zm0-53.64H129.85V291.1h27.49Zm0-53.63H129.85V237.47h27.49Zm0-53.64H129.85V183.83h27.49Zm0-53.63H129.85V130.19h27.49ZM332,359.84H170.71V254.22H332Zm0-117.9H170.71V136.32H332Zm40.43,124H345.56V344.74h26.83Zm0-53.64H345.56V291.1h26.83Zm0-53.63H345.56V237.47h26.83Zm0-53.64H345.56V183.83h26.83Zm0-53.63H345.56V130.19h26.83Z"/></g></svg>