<svg xmlns="http://www.w3.org/2000/svg" viewBox="0 0 500 500"><defs><style>.cls-1{fill:#757575;stroke:#757575;stroke-width:3.04px;}.cls-1,.cls-2{stroke-miterlimit:10;}.cls-2{fill:none;stroke:#3f62ff;stroke-width:0.25px;}</style></defs><title>Widget Block 2</title><g id="Layer_2" data-name="Layer 2"><polygon class="cls-1" points="289.95 218.89 289.95 240.24 217.71 240.24 217.71 218.89 143.65 218.89 143.65 307.34 358.16 307.34 358.16 218.89 289.95 218.89"/><path class="cls-1" d="M318.25,164V117.23H183V164h-39.4v37.62h74.07V185.34H290v16.27h68.2V164Zm-121.49,0V136.54H304.53V164Z"/><rect class="cls-1" x="235.14" y="198.62" width="34.57" height="26.43"/></g><g id="Guias"><line class="cls-2" x1="-0.55" y1="-40.21" x2="500.12" y2="461.45"/><line class="cls-2" x1="-0.55" y1="461.45" x2="500.12" y2="-40.21"/><polygon class="cls-2" points="418.01 379.18 83.82 377.17 81.56 42.07 418.01 42.07 418.01 379.18"/><line class="cls-2" x1="-0.55" y1="210.62" x2="500.12" y2="210.62"/><line class="cls-2" x1="249.79" y1="-42.21" x2="249.79" y2="463.45"/></g></svg>