<svg xmlns="http://www.w3.org/2000/svg" viewBox="0 0 500 500"><defs><style>.cls-1{fill:#e6e6e6;stroke:#e6e6e6;stroke-width:3.04px;}.cls-1,.cls-2{stroke-miterlimit:10;}.cls-2{fill:none;stroke:#3f62ff;stroke-width:0.25px;}</style></defs><title>Widget Block 1</title><g id="Layer_2" data-name="Layer 2"><polygon class="cls-1" points="289.99 218.89 289.99 240.24 217.74 240.24 217.74 218.89 143.68 218.89 143.68 307.34 358.19 307.34 358.19 218.89 289.99 218.89"/><path class="cls-1" d="M318.28,164V117.23H183.07V164h-39.4v37.62h74.07V185.34H290v16.27h68.2V164Zm-121.49,0V136.54H304.56V164Z"/><rect class="cls-1" x="235.17" y="198.62" width="34.57" height="26.43"/></g><g id="Guias"><line class="cls-2" x1="-0.05" y1="-40.21" x2="500.62" y2="461.45"/><line class="cls-2" x1="-0.05" y1="461.45" x2="500.62" y2="-40.21"/><polygon class="cls-2" points="418.51 379.18 84.32 377.17 82.06 42.07 418.51 42.07 418.51 379.18"/><line class="cls-2" x1="-0.05" y1="210.62" x2="500.62" y2="210.62"/><line class="cls-2" x1="250.29" y1="-42.21" x2="250.29" y2="463.45"/></g></svg>