<svg xmlns="http://www.w3.org/2000/svg" viewBox="0 0 500 500"><defs><style>.cls-1{fill:#fff;}.cls-2{fill:#757575;}.cls-3{fill:none;stroke:#3f62ff;stroke-miterlimit:10;stroke-width:0.25px;}</style></defs><title>Slider Block 2</title><g id="Layer_2" data-name="Layer 2"><path class="cls-1" d="M137.31,184.34l49.37,136L383,249l-49.37-136Z"/><path class="cls-2" d="M126.92,181l54.13,149.08,212-77L338.89,104Zm241.44,58.65-177,64.29-39.47-108.7,177-64.29Z"/><path class="cls-1" d="M190.58,222.21V344.47H398.13V222.21Z"/><rect class="cls-2" x="223.63" y="243.48" width="138.78" height="71.87"/><path class="cls-2" d="M180.26,200.11V358.72H405.77V200.11ZM387.18,337.65H198.84V222H387.18Z"/></g><g id="Guias"><line class="cls-3" x1="-0.55" y1="-10.32" x2="500.12" y2="491.34"/><line class="cls-3" x1="-0.55" y1="491.34" x2="500.12" y2="-10.32"/><polygon class="cls-3" points="418.01 409.07 83.82 407.06 81.56 71.95 418.01 71.95 418.01 409.07"/><line class="cls-3" x1="-0.55" y1="240.51" x2="500.12" y2="240.51"/><line class="cls-3" x1="249.79" y1="-12.32" x2="249.79" y2="493.34"/></g></svg>