<svg xmlns="http://www.w3.org/2000/svg" viewBox="0 0 500 500"><defs><style>.cls-1,.cls-2{fill:#757575;stroke:#757575;stroke-width:3.04px;}.cls-1{stroke-linecap:round;stroke-linejoin:round;}.cls-2,.cls-3{stroke-miterlimit:10;}.cls-3{fill:none;stroke:#3f62ff;stroke-width:0.25px;}</style></defs><title>Content Block 1_1</title><g id="Layer_2" data-name="Layer 2"><polygon class="cls-1" points="172.19 324.74 188.25 267.73 192.09 303.35 224.75 304.83 172.19 324.74"/><path class="cls-2" d="M188.26,267.73l1.13,40.75,35.36-3.65L366.9,164.66l-36.49-37.1ZM353.51,166l-133,131.4-24.68-2.09-1.59-22.25L330.8,142.69Z"/><rect class="cls-2" x="251.21" y="308.66" width="123.87" height="12.69" transform="translate(626.28 630.02) rotate(180)"/></g><g id="Guias"><line class="cls-3" x1="0.45" y1="-21.63" x2="501.12" y2="480.02"/><line class="cls-3" x1="0.45" y1="480.02" x2="501.12" y2="-21.63"/><polygon class="cls-3" points="419.01 397.75 84.82 395.74 82.56 60.64 419.01 60.64 419.01 397.75"/><line class="cls-3" x1="0.45" y1="229.19" x2="501.12" y2="229.19"/><line class="cls-3" x1="250.79" y1="-23.64" x2="250.79" y2="482.03"/></g></svg>