<svg xmlns="http://www.w3.org/2000/svg" viewBox="0 0 500 500"><defs><style>.cls-1,.cls-2{fill:#e6e6e6;stroke:#e6e6e6;stroke-width:3.04px;}.cls-1{stroke-linejoin:round;}.cls-2,.cls-3{stroke-miterlimit:10;}.cls-3{fill:none;stroke:#3f62ff;stroke-width:0.25px;}</style></defs><title>Content Block 1</title><g id="Layer_2" data-name="Layer 2"><polygon class="cls-1" points="182.28 324.74 198.35 267.73 202.18 303.35 234.85 304.83 182.28 324.74"/><path class="cls-2" d="M198.35,267.73l1.13,40.75,35.37-3.65L377,164.66l-36.5-37.1ZM363.6,166l-133,131.4-24.68-2.09-1.59-22.25,136.57-130.4Z"/><rect class="cls-2" x="261.3" y="308.66" width="123.87" height="12.69" transform="translate(646.47 630.02) rotate(180)"/></g><g id="Guias"><line class="cls-3" x1="-0.05" y1="-21.63" x2="500.62" y2="480.02"/><line class="cls-3" x1="-0.05" y1="480.02" x2="500.62" y2="-21.63"/><polygon class="cls-3" points="418.51 397.75 84.32 395.74 82.06 60.64 418.51 60.64 418.51 397.75"/><line class="cls-3" x1="-0.05" y1="229.19" x2="500.62" y2="229.19"/><line class="cls-3" x1="250.29" y1="-23.64" x2="250.29" y2="482.03"/></g></svg>