<svg xmlns="http://www.w3.org/2000/svg" viewBox="0 0 500 500"><defs><style>.cls-1{fill:#e6e6e6;}</style></defs><title>Text Block 2</title><g id="Blocks"><g id="Fonts"><path class="cls-1" d="M136,361.66,161.26,357A9.7,9.7,0,0,0,167,353.5a10.1,10.1,0,0,0,2.32-6.61V146.07H114.58c-2.3,0-4,.57-5,1.71a12.21,12.21,0,0,0-2.41,4.29L94.84,190h-9.1V133.19H284.33V190h-9.09l-12.36-37.94a13.1,13.1,0,0,0-2.32-4.29c-1-1.14-2.55-1.71-4.72-1.71H200.23V346.89a9.82,9.82,0,0,0,2.4,6.7,10.27,10.27,0,0,0,5.84,3.43l25.23,4.64v8.06H136Z"/></g><g id="Fonts-2" data-name="Fonts"><path class="cls-1" d="M328.43,364.6l16-2.94a6.14,6.14,0,0,0,3.64-2.23,6.43,6.43,0,0,0,1.47-4.19V227.8H314.82a4,4,0,0,0-3.16,1.09,7.7,7.7,0,0,0-1.53,2.72l-7.84,24.07h-5.77V219.63h126v36.05h-5.77l-7.84-24.07a8.28,8.28,0,0,0-1.47-2.72,3.73,3.73,0,0,0-3-1.09H369.17V355.24a6.19,6.19,0,0,0,1.53,4.24,6.45,6.45,0,0,0,3.7,2.18l16,2.94v5.12h-62Z"/></g></g></svg>