<svg id="Blocks" xmlns="http://www.w3.org/2000/svg" viewBox="0 0 500 500"><defs><style>.cls-1{fill:#757575;}</style></defs><title>Text Block</title><g id="Fonts"><path class="cls-1" d="M131.5,361.66,156.73,357a9.7,9.7,0,0,0,5.75-3.52,10.1,10.1,0,0,0,2.32-6.61V146.07H110q-3.44,0-5,1.71a12,12,0,0,0-2.4,4.29L90.3,190H81.21V133.19H279.8V190h-9.1l-12.35-37.94a13.1,13.1,0,0,0-2.32-4.29c-1-1.14-2.55-1.71-4.72-1.71H195.69V346.89a9.78,9.78,0,0,0,2.41,6.7,10.25,10.25,0,0,0,5.83,3.43l25.24,4.64v8.06H131.5Z"/></g><g id="Fonts-2" data-name="Fonts"><path class="cls-1" d="M323.9,364.6l16-2.94a6.16,6.16,0,0,0,3.65-2.23,6.43,6.43,0,0,0,1.47-4.19V227.8H310.29a4,4,0,0,0-3.16,1.09,7.4,7.4,0,0,0-1.53,2.72l-7.84,24.07H292V219.63H418v36.05h-5.77l-7.85-24.07a7.93,7.93,0,0,0-1.47-2.72,3.69,3.69,0,0,0-3-1.09H364.64V355.24a6.18,6.18,0,0,0,1.52,4.24,6.47,6.47,0,0,0,3.71,2.18l16,2.94v5.12h-62Z"/></g></svg>