<svg xmlns="http://www.w3.org/2000/svg" viewBox="0 0 500 500"><defs><style>.cls-1{fill:#e6e6e6;stroke-width:3.04px;}.cls-1,.cls-2{stroke:#e6e6e6;}.cls-1,.cls-3{stroke-miterlimit:10;}.cls-2,.cls-3{fill:none;}.cls-2{stroke-linecap:square;stroke-width:18px;}.cls-3{stroke:#3f62ff;stroke-width:0.25px;}</style></defs><title>Audio Block 1</title><g id="Layer_2" data-name="Layer 2"><path class="cls-1" d="M252.47,120,184.2,179H119.59v76h63.63l69.25,59.89Z"/><path class="cls-2" d="M286.73,175a77.59,77.59,0,0,1,0,85.16M315,146.78a119.39,119.39,0,0,1,0,141.68m25.87-167.54a154.4,154.4,0,0,1,0,193.41"/></g><g id="Guias"><line class="cls-3" x1="-0.05" y1="-35.89" x2="500.62" y2="465.76"/><line class="cls-3" x1="-0.05" y1="465.76" x2="500.62" y2="-35.89"/><polygon class="cls-3" points="418.51 383.49 84.32 381.48 82.06 46.38 418.51 46.38 418.51 383.49"/><line class="cls-3" x1="-0.05" y1="214.93" x2="500.62" y2="214.93"/><line class="cls-3" x1="250.29" y1="-37.9" x2="250.29" y2="467.77"/></g></svg>