<svg xmlns="http://www.w3.org/2000/svg" viewBox="0 0 500 500"><defs><style>.cls-1{fill:#757575;}</style></defs><title>Mailchimp block</title><g id="Blocks"><path class="cls-1" d="M407.51,308.54c-.42-5.19-2.34-9.71-6.59-12.86-8.4-6.21-10.62-13.46-7-23.59,3.88-10.78.41-21.77-9.12-28.66-3.7-2.67-7.7-5.47-12.08-6-13.21-1.66-16.18-9-15.54-21.39.79-15.53-2.61-30.62-13.39-42.86-2.42-2.75-.15-3.71,1.1-5.14,8.6-9.82,16.13-20.28,20-33,6.84-22.57-4.49-39.25-28-41.31-14.72-1.29-28.76,1.52-42.61,6.29-5.62,1.94-11.33,7.29-16.58,5.5s-9.08-7.71-13.17-12.16c-9-9.8-20.16-12-32.59-9.5-12.23,2.42-23.36,7.72-33.7,14.5-39.08,25.67-69.51,59.33-91.73,100.41a116.71,116.71,0,0,0-9.65,24.63c-5,18.16-2.73,33.93,14.18,45.06,3.44,2.26,3.87,4.62,2.82,8.53a51.25,51.25,0,0,0,44,64.44c3.63.42,5.24,1.76,6.58,4.8a91.72,91.72,0,0,0,11.69,19.36c27.24,35.09,64.17,49.48,107.43,50.31A134.15,134.15,0,0,0,313.25,413c39.62-8.3,69.75-29.16,86.75-66.76C405.38,334.38,408.58,321.82,407.51,308.54Zm-221.7,1.39c-3.94,14.9-14.75,21.55-29.81,18.8-17.47-3.18-31.64-20-31.72-37.53-.1-23.3,19.27-39.89,39.67-33.9C173,260,179.29,266,183,274.49A53,53,0,0,1,185.81,309.93Zm-35.57-71.5c-1.62,4-3.37,6.73-8.12,7.92A35.46,35.46,0,0,0,123,259c-2,2.51-3.18,2.2-5.63.47-11.6-8.18-12.65-19.27-9.28-31.68,6.29-23.15,18.91-42.94,33.46-61.54,19.33-24.71,41.86-46,69.54-61.25a93.75,93.75,0,0,1,22.16-8.8c9.71-2.5,17.87-.93,24.33,7.26,2.52,3.2,5.48,6,8.53,9.36a382.81,382.81,0,0,0-53.7,37.72C184,174.41,164,204.25,150.24,238.43Zm104-96.06c-1.55,4.08-2.71,7.12-4.39,11.51,12.45-7,24.23-12.34,37.61-13.25-.54,3.11-4.3,3.75-4.74,7.21,10.45,1.4,20.93,2.82,31.31,9.28-44.41-5.38-53.33-3.7-99.83,17.93A135.35,135.35,0,0,1,254.24,142.37Zm142,173.29c-2.87,20.19-13.23,36.18-29.38,47.83-27.29,19.69-57.36,26.14-89.35,13.15-46-18.69-43.87-71.37-22.41-94.92,4.23-4.65,3.79-7.92-.11-12.07-7.57-8.07-14.47-16.49-16.91-27.84-5.36-24.93,14.86-48.49,39.19-43.44,4.83,1,9.89,1,14.86,1.22,9.77.44,18-3.15,25.5-9.33,11.63-9.56,22.65-5.8,26,8.82,2.41,10.59,2,21.49,2.61,32.27.51,9.36,1.35,10.54,10.17,13.15,6.4,1.9,12.94,3.47,18.81,6.83,9.71,5.56,11.3,13.87,4.3,22.68-4.53,5.68-10.42,9.73-16.79,13-23.92,12.36-49.33,16.67-76,13.52-11.33-1.34-17.59,1.57-21.07,10.42a21,21,0,0,0,7.18,24.86,44.14,44.14,0,0,0,22.22,8.27c25,2.46,48.59-2.35,70.12-15.7,4.88-3,9.53-6.47,13.45-11.87-3.39-.5-5.05,1.37-6.89,2.4-22.73,12.66-46.66,20.27-73.08,17.66-6.07-.59-12-1.8-17.4-4.65-3.84-2-7.41-4.5-8.19-10.38,18,4.45,35.2,6.7,52.15-1a177.24,177.24,0,0,1-28.59-.74,102.27,102.27,0,0,1-19-3.9c-1.5-.48-4-.2-3.76-2.55.18-1.91,1.78-3.38,3.74-4.11,2.75-1,5.52-.59,8.33-.29,34.72,3.78,67.07-2.48,96.14-22.82,2.28,2.76,2.85,6.22,3.75,9.5,1.13,4.06,1.32,7.8,7.06,9.24C397.25,306,396.88,311.46,396.28,315.66Z"/><path class="cls-1" d="M338.38,233.91c-.78,2.12,1,5.66-3.26,6.37-4,.67-6.36-.9-7.72-4.8a43.78,43.78,0,0,1-2.56-13.23c-.07-2.74.09-5.84,3.63-6.74,3.74-1,5.63,1.4,6.85,4.35A43.49,43.49,0,0,1,338.38,233.91Z"/><path class="cls-1" d="M296.47,248.66c-11.55-6.6-23.19-5.65-35.33-.47,2-7.17,8.57-11.27,16.7-11.59C286.82,236.24,294,240.41,296.47,248.66Z"/><path class="cls-1" d="M272.82,259.63c2.42-7.35,6.56-8.73,11.12-9.17s8.85,0,12.37,5.54C288,255.79,280.81,254.94,272.82,259.63Z"/><path class="cls-1" d="M339.87,253.91c-.26,3-1.28,5.93-4.66,5.69s-4.27-3.36-4.06-6.23c.19-2.53,1.08-5.36,4.36-5.3C339.15,248.13,339.69,251,339.87,253.91Z"/><path class="cls-1" d="M318.08,255.86c2.92.34,5.83,1.65,6.15,5.59.21,2.75-1.84,3.78-4.27,3.67-3.6-.17-6.41-1.9-6.8-5.65C312.89,256.88,315,255.81,318.08,255.86Z"/><path class="cls-1" d="M160.31,298.57c.35-1.49,1-4.41,1.74-7.32,1.37-5.39-.41-9.44-5.49-11.6-4.78-2-9.56.44-12.27,5.52-1.25,2.34-.86,7.55-4.81,5.95-3-1.23-1.37-5.92-.59-8.9,2.56-9.78,11.92-15.36,20.7-12.67,9.12,2.8,13.51,12,10.37,21.79-.65,2-1.6,4-2.33,6-2.25,6.18-.81,8.44,5.8,9.1,1,.1,2.26-.37,2.62,1s-.83,2.38-1.87,3.07a8,8,0,0,1-8.56.45C161.21,308.67,160.17,304.64,160.31,298.57Z"/></g></svg>