<svg xmlns="http://www.w3.org/2000/svg" viewBox="0 0 500 500"><defs><style>.cls-1{fill:#e6e6e6;}</style></defs><title>Site logo block 2</title><g id="Blocks"><polygon class="cls-1" points="251.28 346.71 384.94 254.47 384.96 114.49 251.28 251.78 251.28 346.71"/><polygon class="cls-1" points="251.28 251.76 251.28 346.7 321.54 252.91 251.28 251.76"/><polygon class="cls-1" points="321.51 298.49 384.95 254.47 321.54 252.91 321.51 298.49"/><polygon class="cls-1" points="321.52 252.87 383 114.49 321.52 180.16 321.52 252.87"/><polygon class="cls-1" points="251.28 346.71 123.83 251.77 123.83 114.49 251.28 251.76 251.28 346.71"/><polygon class="cls-1" points="251.28 251.76 251.28 346.7 186.49 251.81 251.28 251.76"/><polygon class="cls-1" points="186.5 298.6 123.87 251.94 186.58 251.98 186.5 298.6"/><polygon class="cls-1" points="186.49 251.77 123.78 114.49 186.49 182.81 186.49 251.77"/></g></svg>