<svg id="Blocks" xmlns="http://www.w3.org/2000/svg" viewBox="0 0 500 500"><defs><style>.cls-1{fill:#757575;}</style></defs><title>Site logo block</title><polygon class="cls-1" points="251.25 346.71 384.91 254.47 384.93 114.49 251.25 251.78 251.25 346.71"/><polygon class="cls-1" points="251.25 251.76 251.25 346.7 321.51 252.91 251.25 251.76"/><polygon class="cls-1" points="321.49 298.49 384.92 254.47 321.51 252.91 321.49 298.49"/><polygon class="cls-1" points="321.49 252.87 382.97 114.49 321.49 180.16 321.49 252.87"/><polygon class="cls-1" points="251.25 346.71 123.8 251.77 123.8 114.49 251.25 251.76 251.25 346.71"/><polygon class="cls-1" points="251.25 251.76 251.25 346.7 186.46 251.81 251.25 251.76"/><polygon class="cls-1" points="186.47 298.6 123.84 251.94 186.55 251.98 186.47 298.6"/><polygon class="cls-1" points="186.47 251.77 123.75 114.49 186.47 182.81 186.47 251.77"/></svg>