<svg xmlns="http://www.w3.org/2000/svg" viewBox="0 0 500 500"><defs><style>.cls-1{fill:#757575;stroke:#757575;stroke-miterlimit:10;stroke-width:3.65px;}</style></defs><title>Pinboard block</title><g id="Layer_2" data-name="Layer 2"><rect class="cls-1" x="119.56" y="314.31" width="69.98" height="68.44" transform="translate(309.1 697.06) rotate(180)"/><rect class="cls-1" x="119.56" y="214.76" width="69.98" height="68.44" transform="translate(309.1 497.96) rotate(180)"/><rect class="cls-1" x="119.56" y="115.21" width="69.98" height="68.44" transform="translate(309.1 298.87) rotate(180)"/><rect class="cls-1" x="215.07" y="314.31" width="69.98" height="68.44" transform="translate(500.12 697.06) rotate(180)"/><rect class="cls-1" x="215.07" y="214.76" width="69.98" height="68.44" transform="translate(500.12 497.96) rotate(180)"/><rect class="cls-1" x="215.07" y="115.21" width="69.98" height="68.44" transform="translate(500.12 298.87) rotate(180)"/><rect class="cls-1" x="310.58" y="314.31" width="69.98" height="68.44" transform="translate(691.14 697.06) rotate(180)"/><rect class="cls-1" x="310.58" y="214.76" width="69.98" height="68.44" transform="translate(691.14 497.96) rotate(180)"/><rect class="cls-1" x="310.58" y="115.21" width="69.98" height="68.44" transform="translate(691.14 298.87) rotate(180)"/></g></svg>