<svg xmlns="http://www.w3.org/2000/svg" viewBox="0 0 500 500"><defs><style>.cls-1{fill:#e6e6e6;stroke:#e6e6e6;stroke-miterlimit:10;stroke-width:3.65px;}</style></defs><title>Pinboard block 2</title><g id="Blocks"><rect class="cls-1" x="118.48" y="314.31" width="69.98" height="68.44" transform="translate(306.94 697.06) rotate(180)"/><rect class="cls-1" x="118.48" y="214.76" width="69.98" height="68.44" transform="translate(306.94 497.96) rotate(180)"/><rect class="cls-1" x="118.48" y="115.21" width="69.98" height="68.44" transform="translate(306.94 298.87) rotate(180)"/><rect class="cls-1" x="213.99" y="314.31" width="69.98" height="68.44" transform="translate(497.96 697.06) rotate(180)"/><rect class="cls-1" x="213.99" y="214.76" width="69.98" height="68.44" transform="translate(497.96 497.96) rotate(180)"/><rect class="cls-1" x="213.99" y="115.21" width="69.98" height="68.44" transform="translate(497.96 298.87) rotate(180)"/><rect class="cls-1" x="309.5" y="314.31" width="69.98" height="68.44" transform="translate(688.98 697.06) rotate(180)"/><rect class="cls-1" x="309.5" y="214.76" width="69.98" height="68.44" transform="translate(688.98 497.96) rotate(180)"/><rect class="cls-1" x="309.5" y="115.21" width="69.98" height="68.44" transform="translate(688.98 298.87) rotate(180)"/></g></svg>