<svg xmlns="http://www.w3.org/2000/svg" viewBox="0 0 500 500"><defs><style>.cls-1{fill:#757575;}.cls-2{fill:none;stroke:#3f62ff;stroke-miterlimit:10;stroke-width:0.25px;}</style></defs><title>Social Block 2</title><g id="Layer_2" data-name="Layer 2"><ellipse class="cls-1" cx="252.6" cy="160.64" rx="47.36" ry="49.34"/><path class="cls-1" d="M315.12,300.35c0-36-28-65.12-62.52-65.12-34.17,0-61.92,28.56-62.49,64h-1.44v35.43H315V304.36C315.06,303,315.12,301.7,315.12,300.35Z"/><ellipse class="cls-1" cx="157.59" cy="175.81" rx="29.4" ry="30.62"/><path class="cls-1" d="M196.4,262.53c0-22.32-17.38-40.42-38.81-40.42-21.21,0-38.43,17.73-38.79,39.73h-.89v22h78.41V265C196.36,264.2,196.4,263.37,196.4,262.53Z"/><ellipse class="cls-1" cx="347.07" cy="175.81" rx="29.4" ry="30.62"/><path class="cls-1" d="M385.87,262.53c0-22.32-17.37-40.42-38.8-40.42-21.21,0-38.43,17.73-38.79,39.73h-.89v22h78.4V265C385.84,264.2,385.87,263.37,385.87,262.53Z"/></g><g id="Guias"><line class="cls-2" x1="-0.55" y1="-21.58" x2="500.12" y2="480.08"/><line class="cls-2" x1="-0.55" y1="480.08" x2="500.12" y2="-21.58"/><polygon class="cls-2" points="418.01 397.81 83.82 395.8 81.56 60.69 418.01 60.69 418.01 397.81"/><line class="cls-2" x1="-0.55" y1="229.25" x2="500.12" y2="229.25"/><line class="cls-2" x1="249.79" y1="-23.58" x2="249.79" y2="482.08"/></g></svg>