<svg xmlns="http://www.w3.org/2000/svg" viewBox="0 0 500 500"><defs><style>.cls-1{fill:#e6e6e6;}</style></defs><title>Social Block 2</title><g id="Blocks"><ellipse class="cls-1" cx="226.04" cy="186.42" rx="56.83" ry="59.2"/><path class="cls-1" d="M151.33,374.26H300.91V337.9c.09-1.6.16-3.2.16-4.81,0-43.16-33.59-78.15-75-78.15-41,0-74.3,34.27-75,76.81"/><ellipse class="cls-1" cx="112.04" cy="210.64" rx="35.28" ry="36.75"/><path class="cls-1" d="M65.42,327.26H158.5V304.69c.06-1,.1-2,.1-3,0-26.79-20.85-48.5-46.56-48.5-25.45,0-46.12,21.27-46.55,47.67"/><ellipse class="cls-1" cx="339.41" cy="209.64" rx="35.28" ry="36.75"/><path class="cls-1" d="M386,301.7c0-26.79-20.84-48.5-46.56-48.5-25.45,0-46.12,21.27-46.55,47.67h-1.07v26.39h94.09V304.69C385.94,303.7,386,302.71,386,301.7Z"/></g></svg>