<svg xmlns="http://www.w3.org/2000/svg" viewBox="0 0 500 500"><defs><style>.cls-1{fill:#e6e6e6;}</style></defs><title>Social Block 2</title><g id="Layer_2" data-name="Layer 2"><ellipse class="cls-1" cx="249.24" cy="176.42" rx="56.83" ry="59.2"/><path class="cls-1" d="M324.26,344.09c0-43.16-33.59-78.15-75-78.15-41,0-74.3,34.27-75,76.81h-1.73v42.51H324.11V348.9C324.2,347.3,324.26,345.7,324.26,344.09Z"/><ellipse class="cls-1" cx="135.23" cy="194.64" rx="35.28" ry="36.75"/><path class="cls-1" d="M181.8,298.7c0-26.79-20.85-48.5-46.57-48.5-25.45,0-46.12,21.27-46.54,47.67H87.62v26.39H181.7V301.69C181.76,300.7,181.8,299.71,181.8,298.7Z"/><ellipse class="cls-1" cx="362.61" cy="194.64" rx="35.28" ry="36.75"/><path class="cls-1" d="M409.17,298.7c0-26.79-20.85-48.5-46.56-48.5-25.45,0-46.12,21.27-46.55,47.67H315v26.39h94.08V301.69C409.13,300.7,409.17,299.71,409.17,298.7Z"/></g></svg>