<svg xmlns="http://www.w3.org/2000/svg" viewBox="0 0 500 500"><defs><style>.cls-1{fill:#757575;}</style></defs><title>Social Block</title><g id="Blocks"><ellipse class="cls-1" cx="250.91" cy="186.42" rx="56.83" ry="59.2"/><path class="cls-1" d="M176.19,374.26H325.77V337.9c.1-1.6.16-3.2.16-4.81,0-43.16-33.59-78.15-75-78.15-41,0-74.3,34.27-75,76.81"/><ellipse class="cls-1" cx="136.9" cy="210.64" rx="35.28" ry="36.75"/><path class="cls-1" d="M90.28,327.26h93.09V304.69c.06-1,.09-2,.09-3,0-26.79-20.84-48.5-46.56-48.5-25.45,0-46.12,21.27-46.55,47.67"/><ellipse class="cls-1" cx="364.27" cy="209.64" rx="35.28" ry="36.75"/><path class="cls-1" d="M410.84,301.7c0-26.79-20.85-48.5-46.57-48.5-25.45,0-46.11,21.27-46.54,47.67h-1.07v26.39h94.08V304.69C410.8,303.7,410.84,302.71,410.84,301.7Z"/></g></svg>