<svg xmlns="http://www.w3.org/2000/svg" viewBox="0 0 500 500"><defs><style>.cls-1{fill:#e6e6e6;}.cls-2{fill:none;stroke:#3f62ff;stroke-miterlimit:10;stroke-width:0.25px;}</style></defs><title>Social Block 1</title><g id="Layer_2" data-name="Layer 2"><ellipse class="cls-1" cx="251.1" cy="160.64" rx="47.36" ry="49.34"/><path class="cls-1" d="M313.62,300.35c0-36-28-65.12-62.52-65.12-34.17,0-61.92,28.56-62.49,64h-1.44v35.43H313.49V304.36C313.56,303,313.62,301.7,313.62,300.35Z"/><ellipse class="cls-1" cx="156.09" cy="175.81" rx="29.4" ry="30.62"/><path class="cls-1" d="M194.9,262.53c0-22.32-17.38-40.42-38.81-40.42-21.21,0-38.43,17.73-38.79,39.73h-.89v22h78.41V265C194.86,264.2,194.9,263.37,194.9,262.53Z"/><ellipse class="cls-1" cx="345.57" cy="175.81" rx="29.4" ry="30.62"/><path class="cls-1" d="M384.37,262.53c0-22.32-17.37-40.42-38.8-40.42-21.21,0-38.43,17.73-38.79,39.73h-.89v22h78.4V265C384.34,264.2,384.37,263.37,384.37,262.53Z"/></g><g id="Guias"><line class="cls-2" x1="-0.05" y1="-21.58" x2="500.62" y2="480.08"/><line class="cls-2" x1="-0.05" y1="480.08" x2="500.62" y2="-21.58"/><polygon class="cls-2" points="418.51 397.81 84.32 395.8 82.06 60.69 418.51 60.69 418.51 397.81"/><line class="cls-2" x1="-0.05" y1="229.25" x2="500.62" y2="229.25"/><line class="cls-2" x1="250.29" y1="-23.58" x2="250.29" y2="482.08"/></g></svg>