<svg xmlns="http://www.w3.org/2000/svg" viewBox="0 0 500 500"><defs><style>.cls-1{fill:#757575;}</style></defs><title>Social Block</title><g id="Layer_2" data-name="Layer 2"><ellipse class="cls-1" cx="250.91" cy="176.42" rx="56.83" ry="59.2"/><path class="cls-1" d="M325.93,344.09c0-43.16-33.59-78.15-75-78.15-41,0-74.3,34.27-75,76.81h-1.73v42.51H325.77V348.9C325.87,347.3,325.93,345.7,325.93,344.09Z"/><ellipse class="cls-1" cx="136.9" cy="194.64" rx="35.28" ry="36.75"/><path class="cls-1" d="M183.46,298.7c0-26.79-20.84-48.5-46.56-48.5-25.45,0-46.12,21.27-46.55,47.67H89.28v26.39h94.09V301.69C183.43,300.7,183.46,299.71,183.46,298.7Z"/><ellipse class="cls-1" cx="364.27" cy="194.64" rx="35.28" ry="36.75"/><path class="cls-1" d="M410.84,298.7c0-26.79-20.85-48.5-46.57-48.5-25.45,0-46.11,21.27-46.54,47.67h-1.07v26.39h94.08V301.69C410.8,300.7,410.84,299.71,410.84,298.7Z"/></g></svg>