<svg id="Blocks" xmlns="http://www.w3.org/2000/svg" viewBox="0 0 500 500"><defs><style>.cls-1{fill:#e6e6e6;}</style></defs><title>Social Block 2</title><ellipse class="cls-1" cx="246.18" cy="176.42" rx="56.83" ry="59.2"/><path class="cls-1" d="M321.2,333.09c0-43.16-33.59-78.15-75-78.15-41,0-74.3,34.27-75,76.81h-1.73v42.51H321.05V337.9C321.14,336.3,321.2,334.7,321.2,333.09Z"/><ellipse class="cls-1" cx="132.17" cy="207.64" rx="35.28" ry="36.75"/><path class="cls-1" d="M178.74,301.7c0-26.79-20.85-48.5-46.57-48.5-25.45,0-46.12,21.27-46.54,47.67H84.55v26.39h94.09V304.69C178.7,303.7,178.74,302.71,178.74,301.7Z"/><ellipse class="cls-1" cx="359.54" cy="206.64" rx="35.28" ry="36.75"/><path class="cls-1" d="M406.11,301.7c0-26.79-20.85-48.5-46.57-48.5-25.45,0-46.11,21.27-46.54,47.67h-1.07v26.39H406V304.69C406.07,303.7,406.11,302.71,406.11,301.7Z"/></svg>