<svg id="Blocks" xmlns="http://www.w3.org/2000/svg" viewBox="0 0 500 500"><defs><style>.cls-1{fill:#fff;}.cls-2{fill:#e6e6e6;}</style></defs><title>Slider block 2</title><path class="cls-1" d="M97.47,140.69l32,170.6L375.84,265l-32-170.6Z"/><path class="cls-2" d="M85.82,134.71l35.13,187,266-49.94L351.79,84.76ZM360.33,251.09,138.2,292.8,112.59,156.41,334.71,114.7Z"/><path class="cls-1" d="M155.16,203.26V360H404.22V203.26Z"/><path class="cls-2" d="M143.77,184.31V384.07H414.39V184.31ZM392.09,357.54h-226V211.88h226Z"/><path class="cls-2" d="M187.82,228.79V339H371.35V228.79Zm148.7,12a16.12,16.12,0,1,1-15.95,16.12A16,16,0,0,1,336.52,240.81ZM191.64,334.33l-.18-35.13L237,265.89l124.33,68.84Z"/></svg>