<svg xmlns="http://www.w3.org/2000/svg" viewBox="0 0 500 500"><defs><style>.cls-1{fill:#757575;}</style></defs><title>Slider block</title><g id="Blocks"><path class="cls-1" d="M368.56,182.3m-22.92,0,22.15,0-17.7-97.19-266,50,35.13,187.05,19.63-3.45V292.52l-2.38.63L110.89,156.76,333,115l12.63,67.26Z"/><path class="cls-1" d="M143.39,186.77V386.52H414V186.77ZM391.7,360h-226V214.34h226Z"/><path class="cls-1" d="M187.43,231.24V341.48H371V231.24Zm148.71,12a16.12,16.12,0,1,1-16,16.12A16,16,0,0,1,336.14,243.27ZM194.25,333.78l-.17-32.13,42.55-33.31L361,334.18Z"/></g></svg>