<svg xmlns="http://www.w3.org/2000/svg" viewBox="0 0 500 500"><defs><style>.cls-1{fill:#e6e6e6;}</style></defs><title>Slider block 2</title><g id="Blocks"><path class="cls-1" d="M368.31,182.3m-22.92,0,22.14,0-17.7-97.19-266,50L119,322.11l19.63-3.45V292.52l-2.37.63L110.63,156.76,332.76,115l12.63,67.26Z"/><path class="cls-1" d="M143.13,186.77V386.52H413.75V186.77ZM391.44,360h-226V214.34h226Z"/><path class="cls-1" d="M187.17,231.24V341.48H370.7V231.24Zm148.71,12a16.12,16.12,0,1,1-15.95,16.12A16,16,0,0,1,335.88,243.27ZM194,333.78l-.17-32.13,42.56-33.31L360.7,334.18Z"/></g></svg>