<svg id="Blocks" xmlns="http://www.w3.org/2000/svg" viewBox="0 0 500 500"><defs><style>.cls-1{fill:#fff;}.cls-2{fill:#757575;}</style></defs><title>Slider block</title><path class="cls-1" d="M97.36,140.69l32,170.6L375.73,265l-32-170.6Z"/><path class="cls-2" d="M85.71,134.71l35.13,187,266-49.94L351.68,84.76ZM360.22,251.09,138.1,292.8,112.48,156.41,334.61,114.7Z"/><path class="cls-1" d="M155.06,203.26V360H404.12V203.26Z"/><path class="cls-2" d="M143.67,184.31V384.07H414.29V184.31ZM392,357.54H166V211.88H392Z"/><path class="cls-2" d="M187.71,228.79V339H371.24V228.79Zm148.71,12a16.12,16.12,0,1,1-15.95,16.12A16,16,0,0,1,336.42,240.81ZM191.53,334.33l-.17-35.13,45.55-33.31,124.33,68.84Z"/></svg>