<svg xmlns="http://www.w3.org/2000/svg" viewBox="0 0 500 500"><defs><style>.cls-1{fill:#fff;}.cls-2{fill:#e6e6e6;}.cls-3{fill:none;stroke:#3f62ff;stroke-miterlimit:10;stroke-width:0.25px;}</style></defs><title>Slider Block 1</title><g id="Layer_2" data-name="Layer 2"><path class="cls-1" d="M106.3,184.34l49.38,136L352,249l-49.38-136Z"/><path class="cls-2" d="M95.92,181l54.13,149.08,212-77L307.89,104Zm241.44,58.65-177,64.29-39.47-108.7,177-64.29Z"/><path class="cls-1" d="M159.58,222.21V344.47H367.12V222.21Z"/><rect class="cls-2" x="192.62" y="243.48" width="138.78" height="71.87"/><path class="cls-2" d="M149.25,200.11V358.72H374.77V200.11ZM356.18,337.65H167.84V222H356.18Z"/></g><g id="Guias"><line class="cls-3" x1="-0.05" y1="-10.32" x2="500.62" y2="491.34"/><line class="cls-3" x1="-0.05" y1="491.34" x2="500.62" y2="-10.32"/><polygon class="cls-3" points="418.51 409.07 84.32 407.06 82.06 71.95 418.51 71.95 418.51 409.07"/><line class="cls-3" x1="-0.05" y1="240.51" x2="500.62" y2="240.51"/><line class="cls-3" x1="250.29" y1="-12.32" x2="250.29" y2="493.34"/></g></svg>