<svg xmlns="http://www.w3.org/2000/svg" viewBox="0 0 500 500"><defs><style>.cls-1{fill:#757575;}</style></defs><title>Breadcrumbs block</title><g id="Blocks"><polygon class="cls-1" points="117.42 290.11 117.42 203.22 189.76 203.22 241.57 249.71 190.3 290.11 117.42 290.11"/><path class="cls-1" d="M184,218.22,218.28,249,185.1,275.11H132.42V218.22H184m11.49-30H102.42V305.11H195.5l69.36-54.65L195.5,188.22Z"/><polygon class="cls-1" points="288.58 290.34 337.87 251.76 283.04 203.19 329.46 203.43 382.47 249.82 332.83 290.34 288.58 290.34"/><path class="cls-1" d="M322.82,218.39h1l35.45,31-.72.59-24.18-21.42-11.52-10.2M243.26,188l71.18,63.07-69.35,54.29h93.08l67.54-55.12-70.58-61.77L243.26,188Z"/></g></svg>