<svg xmlns="http://www.w3.org/2000/svg" viewBox="0 0 500 500"><defs><style>.cls-1{fill:#757575;}.cls-2{fill:none;stroke:#3f62ff;stroke-miterlimit:10;stroke-width:0.25px;}</style></defs><title>Breadcrumbs Block 2</title><g id="Layer_2" data-name="Layer 2"><polygon class="cls-1" points="150.73 293.36 150.73 220.95 211.01 220.95 254.19 259.7 211.47 293.36 150.73 293.36"/><path class="cls-1" d="M206.23,233.45l28.55,25.63-27.65,21.78h-43.9V233.45h43m9.57-25H138.23v97.41H215.8l57.8-45.54-57.8-51.87Z"/><polygon class="cls-1" points="293.37 293.56 334.44 261.4 288.75 220.93 327.43 221.13 371.61 259.79 330.24 293.56 293.37 293.56"/><path class="cls-1" d="M321.9,233.6h.81l29.54,25.86-.61.49L331.5,242.1l-9.6-8.5m-66.3-25.35,59.32,52.56-57.8,45.25h77.57L391,260.12l-58.81-51.47-76.56-.4Z"/></g><g id="Guias"><line class="cls-2" x1="-0.55" y1="3.94" x2="500.12" y2="505.6"/><line class="cls-2" x1="-0.55" y1="505.6" x2="500.12" y2="3.94"/><polygon class="cls-2" points="418.01 423.33 83.82 421.32 81.56 86.22 418.01 86.22 418.01 423.33"/><line class="cls-2" x1="-0.55" y1="254.77" x2="500.12" y2="254.77"/><line class="cls-2" x1="249.79" y1="1.94" x2="249.79" y2="507.6"/></g></svg>